<svg xmlns="http://www.w3.org/2000/svg" viewBox="0 0 24 24"><path d="M21.6 12.2c0-.7-.1-1.4-.2-2H12v3.8h5.4a4.6 4.6 0 0 1-2 3v2.5h3.2c1.9-1.8 3-4.3 3-7.3Z" fill="#4285F4"/><path d="M12 22c2.7 0 5-.9 6.6-2.5l-3.2-2.5c-.9.6-2 .9-3.4.9-2.6 0-4.8-1.7-5.6-4.1H3.1v2.6A10 10 0 0 0 12 22Z" fill="#34A853"/><path d="M6.4 13.8A6 6 0 0 1 6.1 12c0-.6.1-1.2.3-1.8V7.6H3.1A10 10 0 0 0 2 12c0 1.6.4 3.1 1.1 4.4l3.3-2.6Z" fill="#FBBC05"/><path d="M12 6.1c1.5 0 2.9.5 3.9 1.5l2.9-2.9A10 10 0 0 0 3.1 7.6l3.3 2.6C7.2 7.8 9.4 6.1 12 6.1Z" fill="#EA4335"/></svg>
